<svg xmlns="http://www.w3.org/2000/svg" viewBox="0 0 1121.88 575.24">
  <path d="M287,314.4c-22.4,22.4-19.6,67.6-19.6,67.6H153.8s2.4-45.2-19.6-67.6c-24.4-21.6-40-52.8-40-87.6a116,116,0,0,1,232,0A117.55,117.55,0,0,1,287,314.4Z" transform="translate(-9.9)" style="fill: #ffd517"/>
  <g>
    <path d="M270.6,417.6a10.76,10.76,0,0,1-10.8,10.8H161a10.76,10.76,0,0,1-10.8-10.8h0A10.76,10.76,0,0,1,161,406.8h98.4a11.1,11.1,0,0,1,11.2,10.8Z" transform="translate(-9.9)" style="fill: #e5e5e5"/>
    <path d="M255.8,462.4A10.76,10.76,0,0,1,245,473.2H175.8A10.76,10.76,0,0,1,165,462.4h0a10.76,10.76,0,0,1,10.8-10.8H245a10.76,10.76,0,0,1,10.8,10.8Z" transform="translate(-9.9)" style="fill: #e5e5e5"/>
  </g>
  <g>
    <path d="M293,318.4a123.71,123.71,0,0,0,40.8-91.6c0-68-55.6-123.6-123.6-123.6S86.6,158.8,86.6,226.8a124.06,124.06,0,0,0,42,92.8c19.6,19.6,17.6,61.2,17.6,61.6a9.56,9.56,0,0,0,2,5.6,7.9,7.9,0,0,0,5.6,2.4H267a7.9,7.9,0,0,0,5.6-2.4,7.49,7.49,0,0,0,2-5.6c0-.4-2-42,17.6-61.6C292.6,319.2,293,318.8,293,318.4Zm-11.2-10a4,4,0,0,0-1.6,2c-17.6,18.8-20.4,49.6-20.8,64h-98c-.4-14.8-3.6-46.8-22.4-65.6a108.36,108.36,0,1,1,179.6-81.6A107.56,107.56,0,0,1,281.8,308.4Z" transform="translate(-9.9)" style="fill: #210b20"/>
    <path d="M210.2,135.2a7.6,7.6,0,1,0,0,15.2,81.26,81.26,0,0,1,81.2,81.2,7.6,7.6,0,0,0,15.2,0A96.45,96.45,0,0,0,210.2,135.2Z" transform="translate(-9.9)" style="fill: #210b20"/>
    <path d="M278.2,417.6a18.35,18.35,0,0,0-18.4-18.4H161a18.4,18.4,0,0,0,0,36.8h98.4A18.44,18.44,0,0,0,278.2,417.6Zm-18.8,3.2H161a3.2,3.2,0,1,1,0-6.4h98.4a3.15,3.15,0,0,1,3.2,3.2C263,419.6,261.4,420.8,259.4,420.8Z" transform="translate(-9.9)" style="fill: #210b20"/>
    <path d="M245,444H175.8a18.4,18.4,0,0,0,0,36.8H245a18.35,18.35,0,0,0,18.4-18.4A18.61,18.61,0,0,0,245,444Zm0,21.6H175.8a3.2,3.2,0,0,1,0-6.4H245a3.15,3.15,0,0,1,3.2,3.2A2.94,2.94,0,0,1,245,465.6Z" transform="translate(-9.9)" style="fill: #210b20"/>
    <path d="M217.8,58.8V7.6a7.6,7.6,0,0,0-15.2,0V59.2a7.59,7.59,0,0,0,7.6,7.6A7.94,7.94,0,0,0,217.8,58.8Z" transform="translate(-9.9)" style="fill: #210b20"/>
    <path d="M336.2,38a7.6,7.6,0,0,0-10.4,2L297.4,82.8a7.6,7.6,0,0,0,2,10.4,7.72,7.72,0,0,0,4,1.2,8.35,8.35,0,0,0,6.4-3.2l28.4-42.8C340.6,45.2,339.4,40.4,336.2,38Z" transform="translate(-9.9)" style="fill: #210b20"/>
    <path d="M119.8,92.8a7.63,7.63,0,0,0,6.4-11.6L98.6,38a7.55,7.55,0,0,0-12.8,8l27.6,43.2A7.69,7.69,0,0,0,119.8,92.8Z" transform="translate(-9.9)" style="fill: #210b20"/>
    <path d="M13.8,128.8,59,153.2a5.94,5.94,0,0,0,3.6.8,8.25,8.25,0,0,0,6.8-4,7.52,7.52,0,0,0-3.2-10.4L21,115.2a7.52,7.52,0,0,0-10.4,3.2C9,122.4,10.2,126.8,13.8,128.8Z" transform="translate(-9.9)" style="fill: #210b20"/>
    <path d="M357.8,154.4a11.68,11.68,0,0,0,3.6-.8l45.2-24.4a7.69,7.69,0,1,0-7.2-13.6L354.2,140a7.63,7.63,0,0,0,3.6,14.4Z" transform="translate(-9.9)" style="fill: #210b20"/>
  </g>
  <text transform="translate(454.77 243.59)" style="isolation: isolate;font-size: 250px;font-family: Helvetica">Share</text>
  <text transform="translate(480.8 455)" style="isolation: isolate;font-size: 250px;font-family: Helvetica">Ideas</text>
</svg>
